HIERARCHY
ROOT Hips
{
	OFFSET 0.000000 100.481300 0.000000
	CHANNELS 6 Xposition Yposition Zposition Xrotation Yrotation Zrotation 
	JOINT Spine
	{
		OFFSET -0.279200 12.230698 -2.892100
		CHANNELS 3 Xrotation Yrotation Zrotation
		JOINT Spine1
		{
			OFFSET -0.232667 10.192268 -1.242267
			CHANNELS 3 Xrotation Yrotation Zrotation
			JOINT Spine1_split
			{
				OFFSET -0.232667 10.192268 -1.242267
				CHANNELS 3 Xrotation Yrotation Zrotation
				JOINT Spine2
				{
					OFFSET -0.232667 10.192268 -1.242267
					CHANNELS 3 Xrotation Yrotation Zrotation
					JOINT Neck
					{
						OFFSET -0.418800 17.814194 8.416900
						CHANNELS 3 Xrotation Yrotation Zrotation
						JOINT Head
						{
							OFFSET 0.000000 7.031097 3.806800
							CHANNELS 3 Xrotation Yrotation Zrotation
							JOINT HeadTop_End
							{
								OFFSET 0.000000 24.646606 12.978600
								CHANNELS 3 Xrotation Yrotation Zrotation
								End Site
								{
									OFFSET 0.000000 0.000000 0.000000
								}
							}
						}
					}
					JOINT LeftShoulder
					{
						OFFSET 8.476499 7.247704 -3.868750
						CHANNELS 3 Xrotation Yrotation Zrotation
						JOINT LeftShoulder_split
						{
							OFFSET 8.476499 7.247704 -3.868750
							CHANNELS 3 Xrotation Yrotation Zrotation
							JOINT LeftArm
							{
								OFFSET 9.308998 -2.777710 0.208600
								CHANNELS 3 Xrotation Yrotation Zrotation
								JOINT LeftForeArm
								{
									OFFSET 29.972298 0.000000 0.000000
									CHANNELS 3 Xrotation Yrotation Zrotation
									JOINT LeftHand
									{
										OFFSET 26.026505 0.000000 0.000000
										CHANNELS 3 Xrotation Yrotation Zrotation
										JOINT LeftHandThumb1
										{
											OFFSET 12.240501 -7.147949 9.207150
											CHANNELS 3 Xrotation Yrotation Zrotation
											JOINT LeftHandThumb2
											{
												OFFSET 4.138618 -2.389435 2.389433
												CHANNELS 3 Xrotation Yrotation Zrotation
												JOINT LeftHandThumb3
												{
													OFFSET 2.726913 -1.574387 1.574386
													CHANNELS 3 Xrotation Yrotation Zrotation
													JOINT LeftHandThumb4
													{
														OFFSET 3.941010 -2.275345 2.275342
														CHANNELS 3 Xrotation Yrotation Zrotation
														End Site
														{
															OFFSET 0.000000 0.000000 0.000000
														}
													}
												}
											}
										}
										JOINT LeftHandIndex1
										{
											OFFSET 24.424698 -1.985611 5.953459
											CHANNELS 3 Xrotation Yrotation Zrotation
											JOINT LeftHandIndex2
											{
												OFFSET 6.426697 0.000000 0.000000
												CHANNELS 3 Xrotation Yrotation Zrotation
												JOINT LeftHandIndex3
												{
													OFFSET 5.337898 0.000000 0.000000
													CHANNELS 3 Xrotation Yrotation Zrotation
													JOINT LeftHandIndex4
													{
														OFFSET 4.409401 0.000000 0.000000
														CHANNELS 3 Xrotation Yrotation Zrotation
														End Site
														{
															OFFSET 0.000000 0.000000 0.000000
														}
													}
												}
											}
										}
										JOINT LeftHandMiddle1
										{
											OFFSET 23.810104 0.000000 0.000000
											CHANNELS 3 Xrotation Yrotation Zrotation
											JOINT LeftHandMiddle2
											{
												OFFSET 7.176498 0.000000 0.000000
												CHANNELS 3 Xrotation Yrotation Zrotation
												JOINT LeftHandMiddle3
												{
													OFFSET 6.774902 0.000000 0.000000
													CHANNELS 3 Xrotation Yrotation Zrotation
													JOINT LeftHandMiddle4
													{
														OFFSET 5.403328 0.000000 0.000000
														CHANNELS 3 Xrotation Yrotation Zrotation
														End Site
														{
															OFFSET 0.000000 0.000000 0.000000
														}
													}
												}
											}
										}
										JOINT LeftHandRing1
										{
											OFFSET 22.908401 -0.839279 -6.020567
											CHANNELS 3 Xrotation Yrotation Zrotation
											JOINT LeftHandRing2
											{
												OFFSET 6.337502 0.000000 0.000000
												CHANNELS 3 Xrotation Yrotation Zrotation
												JOINT LeftHandRing3
												{
													OFFSET 5.779297 0.000000 0.000000
													CHANNELS 3 Xrotation Yrotation Zrotation
													JOINT LeftHandRing4
													{
														OFFSET 4.965698 0.000000 0.000000
														CHANNELS 3 Xrotation Yrotation Zrotation
														End Site
														{
															OFFSET 0.000000 0.000000 0.000000
														}
													}
												}
											}
										}
										JOINT LeftHandPinky1
										{
											OFFSET 20.037003 -1.530319 -10.950146
											CHANNELS 3 Xrotation Yrotation Zrotation
											JOINT LeftHandPinky2
											{
												OFFSET 5.254700 0.000000 0.000000
												CHANNELS 3 Xrotation Yrotation Zrotation
												JOINT LeftHandPinky3
												{
													OFFSET 4.810204 0.000000 0.000000
													CHANNELS 3 Xrotation Yrotation Zrotation
													JOINT LeftHandPinky4
													{
														OFFSET 3.647202 0.000000 0.000000
														CHANNELS 3 Xrotation Yrotation Zrotation
														End Site
														{
															OFFSET 0.000000 0.000000 0.000000
														}
													}
												}
											}
										}
									}
								}
							}
						}
					}
					JOINT RightShoulder
					{
						OFFSET -7.570500 7.247704 -3.868750
						CHANNELS 3 Xrotation Yrotation Zrotation
						JOINT RightShoulder_split
						{
							OFFSET -7.570500 7.247704 -3.868750
							CHANNELS 3 Xrotation Yrotation Zrotation
							JOINT RightArm
							{
								OFFSET -9.308998 -2.777710 0.208500
								CHANNELS 3 Xrotation Yrotation Zrotation
								JOINT RightForeArm
								{
									OFFSET -29.972300 0.000000 0.000000
									CHANNELS 3 Xrotation Yrotation Zrotation
									JOINT RightHand
									{
										OFFSET -26.026505 0.000000 0.000000
										CHANNELS 3 Xrotation Yrotation Zrotation
										JOINT RightHandThumb1
										{
											OFFSET -12.240601 -7.148026 9.207092
											CHANNELS 3 Xrotation Yrotation Zrotation
											JOINT RightHandThumb2
											{
												OFFSET -4.138618 -2.389435 2.389433
												CHANNELS 3 Xrotation Yrotation Zrotation
												JOINT RightHandThumb3
												{
													OFFSET -2.726974 -1.574417 1.574421
													CHANNELS 3 Xrotation Yrotation Zrotation
													JOINT RightHandThumb4
													{
														OFFSET -3.941010 -2.275345 2.275343
														CHANNELS 3 Xrotation Yrotation Zrotation
														End Site
														{
															OFFSET 0.000000 0.000000 0.000000
														}
													}
												}
											}
										}
										JOINT RightHandIndex1
										{
											OFFSET -24.424698 -1.985657 5.953444
											CHANNELS 3 Xrotation Yrotation Zrotation
											JOINT RightHandIndex2
											{
												OFFSET -6.426697 0.000000 0.000000
												CHANNELS 3 Xrotation Yrotation Zrotation
												JOINT RightHandIndex3
												{
													OFFSET -5.337898 0.000000 0.000000
													CHANNELS 3 Xrotation Yrotation Zrotation
													JOINT RightHandIndex4
													{
														OFFSET -4.409401 0.000000 0.000000
														CHANNELS 3 Xrotation Yrotation Zrotation
														End Site
														{
															OFFSET 0.000000 0.000000 0.000000
														}
													}
												}
											}
										}
										JOINT RightHandMiddle1
										{
											OFFSET -23.810097 0.000000 0.000000
											CHANNELS 3 Xrotation Yrotation Zrotation
											JOINT RightHandMiddle2
											{
												OFFSET -7.176498 0.000000 0.000000
												CHANNELS 3 Xrotation Yrotation Zrotation
												JOINT RightHandMiddle3
												{
													OFFSET -6.774902 0.000000 0.000000
													CHANNELS 3 Xrotation Yrotation Zrotation
													JOINT RightHandMiddle4
													{
														OFFSET -5.403328 0.000000 0.000000
														CHANNELS 3 Xrotation Yrotation Zrotation
														End Site
														{
															OFFSET 0.000000 0.000000 0.000000
														}
													}
												}
											}
										}
										JOINT RightHandRing1
										{
											OFFSET -22.908302 -0.839325 -6.020576
											CHANNELS 3 Xrotation Yrotation Zrotation
											JOINT RightHandRing2
											{
												OFFSET -6.337502 0.000000 0.000000
												CHANNELS 3 Xrotation Yrotation Zrotation
												JOINT RightHandRing3
												{
													OFFSET -5.779297 0.000000 0.000000
													CHANNELS 3 Xrotation Yrotation Zrotation
													JOINT RightHandRing4
													{
														OFFSET -4.965698 0.000000 0.000000
														CHANNELS 3 Xrotation Yrotation Zrotation
														End Site
														{
															OFFSET 0.000000 0.000000 0.000000
														}
													}
												}
											}
										}
										JOINT RightHandPinky1
										{
											OFFSET -20.037003 -1.530334 -10.950259
											CHANNELS 3 Xrotation Yrotation Zrotation
											JOINT RightHandPinky2
											{
												OFFSET -5.254700 0.000000 0.000000
												CHANNELS 3 Xrotation Yrotation Zrotation
												JOINT RightHandPinky3
												{
													OFFSET -4.810204 0.000000 0.000000
													CHANNELS 3 Xrotation Yrotation Zrotation
													JOINT RightHandPinky4
													{
														OFFSET -3.647202 0.000000 0.000000
														CHANNELS 3 Xrotation Yrotation Zrotation
														End Site
														{
															OFFSET 0.000000 0.000000 0.000000
														}
													}
												}
											}
										}
									}
								}
							}
						}
					}
				}
			}
		}
	}
	JOINT LeftUpLeg
	{
		OFFSET 15.427100 -6.655098 0.678600
		CHANNELS 3 Xrotation Yrotation Zrotation
		JOINT LeftLeg
		{
			OFFSET 4.081073 -39.591068 13.024000
			CHANNELS 3 Xrotation Yrotation Zrotation
			JOINT LeftFoot
			{
				OFFSET -4.081074 -37.707932 -15.979700
				CHANNELS 3 Xrotation Yrotation Zrotation
				JOINT LeftToeBase
				{
					OFFSET 5.346399 -15.068900 20.645000
					CHANNELS 3 Xrotation Yrotation Zrotation
					JOINT LeftToe_End
					{
						OFFSET 2.754700 0.931300 11.300900
						CHANNELS 3 Xrotation Yrotation Zrotation
						End Site
						{
							OFFSET 0.000000 0.000000 0.000000
						}
					}
				}
			}
		}
	}
	JOINT RightUpLeg
	{
		OFFSET -15.569500 -6.655098 0.678600
		CHANNELS 3 Xrotation Yrotation Zrotation
		JOINT RightLeg
		{
			OFFSET -4.081825 -39.591045 13.023800
			CHANNELS 3 Xrotation Yrotation Zrotation
			JOINT RightFoot
			{
				OFFSET 4.081824 -37.707954 -15.979600
				CHANNELS 3 Xrotation Yrotation Zrotation
				JOINT RightToeBase
				{
					OFFSET -5.346400 -15.068900 20.645000
					CHANNELS 3 Xrotation Yrotation Zrotation
					JOINT RightToe_End
					{
						OFFSET -2.754700 0.931300 11.300900
						CHANNELS 3 Xrotation Yrotation Zrotation
						End Site
						{
							OFFSET 0.000000 0.000000 0.000000
						}
					}
				}
			}
		}
	}
}
MOTION
Frames: 4
Frame Time: 0.016667
-0.003858 74.367706 -0.357224 11.754901 -49.677680 11.771185 10.996899 2.942038 -2.515436 6.100713 5.566518 -4.284674 0.000000 0.000000 0.000000 -5.786925 6.328151 -3.046183 2.318704 9.363319 -0.265342 -4.146677 23.161954 -3.523375 -0.000000 -0.000000 0.000000 -1.875343 -16.181700 -2.870486 0.000000 0.000000 0.000000 -10.644658 2.164725 -45.510575 -22.862381 -25.786288 -15.871736 2.491053 -2.511852 6.860512 18.457954 -9.513808 13.216579 -1.150179 11.255330 -8.400807 5.706547 8.483094 -0.820718 -0.000000 0.000000 -0.000001 -1.232789 -5.771922 -0.192325 0.133952 -0.197658 -4.602117 0.055735 -0.448180 -7.568220 -0.000001 -0.000000 0.000000 1.884759 4.663351 -4.597402 0.476682 -1.009827 -12.986455 0.628528 -1.346598 -16.554022 -0.000001 -0.000003 -0.000003 3.024646 7.938942 -14.103455 -0.708022 -0.566248 -18.895768 -0.726385 -0.705040 -22.058427 -0.000005 -0.000001 -0.000002 2.010395 6.305953 -22.386553 -0.815357 -0.210790 -16.746481 -2.232641 0.018985 -34.673858 -0.000003 -0.000003 -0.000001 -5.074598 24.343689 1.482627 0.000000 0.000000 0.000000 6.642400 -34.733681 57.610515 -21.031956 44.833864 19.961609 -0.087318 35.608495 7.474361 55.149526 18.649606 -29.698287 -0.442523 -14.180561 7.313155 21.666967 -29.244497 9.142355 0.000000 0.000001 -0.000000 5.673402 7.585019 36.844147 1.050460 3.824522 68.900257 0.499573 3.026038 62.196447 0.000001 0.000001 0.000001 -0.125701 1.886085 45.000759 -1.168979 3.204682 68.417657 -0.936413 1.813629 41.107565 0.000001 -0.000000 0.000000 -5.311983 1.216649 58.508801 -0.745231 1.667582 48.011302 -0.816478 1.840614 53.666538 -0.000002 0.000000 -0.000001 -7.756804 -9.376465 47.263994 -0.526025 1.541609 45.600525 -0.508194 0.803436 24.986625 0.000001 0.000000 -0.000001 -67.586279 25.164538 42.947150 43.279292 -19.356785 3.336694 8.272016 0.637543 -12.352763 -0.971720 -6.109426 0.594967 0.000000 0.000002 0.000000 -29.726759 0.631873 -30.303012 49.962885 5.852383 -4.864586 -26.770284 -5.250190 27.155381 0.528345 2.970060 1.471343 0.000000 0.000002 0.000000 
-0.050817 74.239670 0.022224 17.413354 -51.338591 16.470644 6.623372 3.293713 -1.834255 4.905269 6.087644 -4.052457 0.000000 0.000000 0.000000 -6.993466 6.770114 -2.740920 -0.991442 3.774188 0.062748 -2.765976 16.503475 -2.144352 0.000001 -0.000001 -0.000000 -2.019447 -12.678712 -1.080112 0.000000 0.000000 0.000000 -6.222594 2.408209 -48.336057 -21.610058 -26.352753 -14.989779 2.965863 -1.783781 8.412961 18.064682 -9.416805 14.872081 -0.773606 11.739610 -8.473102 5.789433 8.646691 -0.813672 0.000001 0.000001 -0.000001 -1.184307 -5.275866 -1.333414 0.131703 -0.224512 -5.199125 0.049342 -0.418691 -6.975707 -0.000002 -0.000000 0.000000 1.542730 3.201547 -5.955574 0.477917 -1.005692 -12.916744 0.632427 -1.336364 -16.388375 0.000004 -0.000002 -0.000004 2.085937 6.252227 -15.478196 -0.700613 -0.534754 -18.124361 -0.709580 -0.665869 -21.171244 0.000001 -0.000002 -0.000001 1.342393 5.609871 -22.650038 -0.814039 -0.196009 -16.362347 -2.217424 0.041408 -33.895640 -0.000003 -0.000002 -0.000001 -5.292530 23.824666 2.533292 0.000000 0.000000 0.000000 6.218715 -35.596122 55.188089 -22.397623 43.628219 20.943882 3.828309 34.139232 9.201650 55.149519 18.649601 -29.698281 -0.442526 -14.180560 7.313158 21.666969 -29.244497 9.142354 -0.000000 -0.000000 0.000000 5.673399 7.585015 36.844147 1.050460 3.824518 68.900257 0.499572 3.026035 62.196440 -0.000002 0.000001 -0.000000 -0.125701 1.886083 45.000759 -1.168979 3.204683 68.417657 -0.936415 1.813629 41.107572 -0.000001 0.000000 -0.000001 -5.311982 1.216645 58.508801 -0.745232 1.667581 48.011305 -0.816478 1.840612 53.666541 0.000002 -0.000002 -0.000003 -7.756804 -9.376464 47.263990 -0.526023 1.541610 45.600525 -0.508197 0.803436 24.986630 -0.000000 0.000001 -0.000001 -68.816143 24.350538 43.223011 43.903677 -18.648532 3.304641 6.871531 2.862669 -13.752226 -0.971720 -6.109426 0.594967 -0.000000 0.000002 -0.000000 -34.083901 2.609170 -29.758642 50.048952 6.040647 -4.915328 -25.957524 -4.392457 27.352782 0.528345 2.970060 1.471344 -0.000000 0.000001 0.000000 
-0.322193 74.015533 0.637980 23.126332 -51.281784 21.633139 1.945482 3.290550 -0.962799 3.783562 5.915588 -3.917738 0.000000 0.000000 0.000000 -8.078003 6.563215 -2.613886 -5.256412 -4.314890 1.768454 -0.964761 7.189386 -0.581165 -0.000000 0.000002 -0.000000 -2.338704 -9.267081 0.477312 0.000000 0.000000 0.000000 0.012353 1.464320 -49.562230 -21.267384 -30.655709 -14.789844 4.369182 -3.947316 9.995082 17.604333 -9.261281 16.773918 -0.387783 12.245197 -8.536504 5.865866 8.783620 -0.820998 0.000001 -0.000002 0.000002 -1.103389 -4.719080 -2.651497 0.129741 -0.245654 -5.669171 0.055138 -0.379041 -6.139141 0.000001 0.000001 0.000002 1.185354 1.599517 -7.313240 0.484448 -0.983395 -12.540475 0.638512 -1.307888 -15.877989 0.000003 0.000001 -0.000001 1.012833 4.393969 -16.937175 -0.690358 -0.487708 -16.975156 -0.687487 -0.610027 -19.919048 -0.000002 -0.000002 0.000001 0.513802 4.787099 -22.957015 -0.812388 -0.176145 -15.846285 -2.210644 0.052159 -32.881149 0.000002 -0.000002 -0.000002 -5.306082 22.788516 3.827940 0.000000 0.000000 0.000000 7.662512 -36.585669 53.035497 -27.334605 45.566490 26.031878 8.948037 30.429295 10.709160 55.149526 18.649603 -29.698284 -0.442523 -14.180565 7.313154 21.666965 -29.244497 9.142354 -0.000001 -0.000001 -0.000002 5.673398 7.585020 36.844151 1.050458 3.824523 68.900257 0.499573 3.026037 62.196447 0.000000 -0.000000 0.000001 -0.125702 1.886085 45.000756 -1.168979 3.204681 68.417650 -0.936415 1.813631 41.107569 0.000001 -0.000000 0.000002 -5.311984 1.216648 58.508801 -0.745231 1.667585 48.011302 -0.816480 1.840612 53.666538 -0.000000 -0.000000 -0.000001 -7.756807 -9.376464 47.263994 -0.526026 1.541608 45.600522 -0.508192 0.803433 24.986625 0.000003 0.000001 -0.000002 -70.481706 24.040628 42.501743 44.517148 -18.201932 3.286192 5.658756 4.567001 -14.591968 -0.971720 -6.109425 0.594967 -0.000000 0.000002 0.000000 -37.422606 4.503009 -29.966253 50.168914 5.860029 -4.942835 -25.859747 -4.612528 27.946755 0.528345 2.970061 1.471343 -0.000000 -0.000002 0.000000 
-0.802540 73.818024 1.309760 27.471299 -49.866870 25.883886 -1.819364 2.873403 -0.214170 3.102668 5.088892 -3.978469 0.000000 0.000000 0.000000 -8.666748 5.787711 -2.761522 -8.158455 -13.179533 6.213846 0.797486 -2.094659 0.411620 -0.000000 -0.000002 0.000001 -2.777918 -7.561326 3.202646 0.000000 0.000000 0.000000 6.336174 0.679719 -51.194276 -20.920407 -35.100899 -14.588092 5.409404 -8.008543 10.884738 17.109788 -9.079838 18.724417 0.002453 12.754324 -8.604147 5.938797 8.914636 -0.827738 -0.000000 -0.000001 0.000001 -0.983830 -4.156252 -4.002712 0.127625 -0.266931 -6.142140 0.060480 -0.336376 -5.241556 0.000002 0.000001 -0.000002 0.803371 -0.034203 -8.704983 0.492086 -0.956438 -12.087582 0.645736 -1.274400 -15.281408 -0.000000 -0.000002 0.000001 -0.132075 2.515795 -18.482079 -0.680306 -0.436492 -15.731497 -0.665377 -0.549440 -18.575683 0.000001 0.000001 0.000000 -0.362789 3.941758 -23.293209 -0.810857 -0.154967 -15.297274 -2.203427 0.063985 -31.807747 0.000002 -0.000002 -0.000002 -5.506176 20.977707 6.822260 0.000000 0.000000 0.000000 8.426897 -38.300815 48.596410 -35.680099 50.798924 35.841226 12.703987 25.022439 12.320485 55.149533 18.649599 -29.698287 -0.442526 -14.180563 7.313156 21.666965 -29.244500 9.142353 -0.000000 -0.000001 0.000000 5.673403 7.585016 36.844151 1.050461 3.824515 68.900257 0.499572 3.026037 62.196447 -0.000001 0.000002 -0.000006 -0.125699 1.886085 45.000759 -1.168979 3.204680 68.417657 -0.936416 1.813629 41.107569 -0.000000 -0.000001 0.000001 -5.311983 1.216647 58.508807 -0.745231 1.667583 48.011305 -0.816480 1.840613 53.666538 0.000003 0.000000 -0.000000 -7.756803 -9.376464 47.263994 -0.526024 1.541612 45.600525 -0.508193 0.803435 24.986625 -0.000000 0.000001 -0.000001 -72.076493 24.304996 41.061000 44.780978 -18.057389 3.266612 4.822798 5.570139 -14.929766 -0.971720 -6.109424 0.594967 -0.000000 0.000002 -0.000000 -39.328523 6.034872 -30.869313 50.311460 5.430027 -4.926023 -26.389860 -5.642698 28.657527 0.528345 2.970060 1.471343 -0.000000 -0.000000 0.000000 
